<svg xmlns:dc="http://purl.org/dc/elements/1.1/" xmlns:cc="http://creativecommons.org/ns#" xmlns:rdf="http://www.w3.org/1999/02/22-rdf-syntax-ns#" xmlns:svg="http://www.w3.org/2000/svg" xmlns="http://www.w3.org/2000/svg" viewBox="0 0 151150.0000 41609.0000" width="2772.4000mm" height="763.1942mm" version="1.1">
   <path gf-side="left" gf-tag="" gf-guid="1043fb51-3ba8-43e8-8f31-a30a820e45af"  gf-forceAngle="True" style="fill: none; stroke:#e30016;stroke-width:1" 
	d=" M95206,20298 92300,4160 C92092,3030 91828,1876 91667,743 91664,726 91725,659 91742,657 94226,426 96719,336 99210,219 L100422,167 101634,120 102646,87 103658,59 104671,36 105684,19 106696,7 107709,1 108722,0 109735,6 110859,18 111420,28 111982,40 112543,54 113105,71 113666,91 114228,115 114839,144 115450,177 116061,214 116672,255 117283,300 117893,349 118503,402 119112,458 119564,502 120016,549 120467,598 120917,651 121368,706 121818,765 122043,796 122267,828 122492,860 122716,894 123002,939 123288,986 123573,1034 123858,1084 124143,1136 124427,1190 124711,1246 124995,1304 125278,1364 125561,1426 125843,1490 126125,1556 126406,1625 126687,1695 126967,1768 127247,1843 127479,1907 127711,1973 127942,2040 128173,2109 128403,2179 128633,2250 128862,2324 129091,2398 129320,2475 129548,2552 129775,2631 130002,2712 130229,2794 130455,2877 130680,2962 130905,3048 131077,3115 131249,3183 131592,3320 131934,3461 132274,3605 132614,3751 132952,3899 133289,4050 133626,4204 134120,4433 134611,4667 135101,4905 135589,5147 136076,5392 136560,5642 137043,5894 137524,6150 137875,6339 138226,6531 138576,6724 138925,6918 139272,7115 139619,7313 139965,7513 140310,7715 140749,7976 141188,8240 141624,8506 142060,8775 142928,9317 143793,9863 144625,10391 145454,10923 145867,11192 146279,11462 146689,11735 147097,12011 147614,12366 148128,12725 148639,13088 149147,13456 149867,13973 151150,20170 95206,20298 95206,20298" />
	
   <path gf-side="none" gf-tag="" gf-guid="a7f93b32-35d6-414a-bd7a-f12e859fc5e9"  gf-forceAngle="True" style="fill: none; stroke:#e30016;stroke-width:1" 
	d=" M95173,21312 92267,37450 C92059,38580 91795,39734 91634,40867 91632,40884 91692,40951 91709,40953 94194,41184 96686,41274 99177,41391 L100389,41443 101601,41490 102613,41523 103625,41551 104638,41574 105651,41591 106664,41603 107677,41609 108690,41609 109702,41604 110826,41592 111388,41582 111949,41570 112511,41556 113072,41539 113634,41519 114195,41495 114806,41466 115418,41433 116029,41396 116639,41355 117250,41310 117860,41261 118470,41208 119080,41152 119531,41107 119983,41061 120434,41012 120885,40959 121335,40904 121785,40845 122010,40814 122235,40782 122459,40750 122683,40716 122969,40671 123255,40624 123540,40576 123826,40526 124110,40474 124395,40420 124679,40364 124962,40306 125246,40246 125528,40184 125811,40120 126092,40053 126374,39985 126654,39915 126934,39842 127214,39767 127446,39703 127678,39637 127909,39570 128140,39501 128370,39431 128600,39359 128830,39286 129059,39212 129287,39135 129515,39058 129743,38979 129970,38898 130196,38816 130422,38733 130647,38648 130872,38562 131045,38495 131216,38427 131559,38290 131901,38149 132242,38005 132581,37859 132919,37710 133257,37560 133593,37406 134087,37177 134579,36943 135069,36705 135557,36463 136043,36218 136527,35968 137010,35716 137491,35460 137843,35270 138193,35079 138543,34886 138892,34692 139240,34495 139587,34297 139932,34097 140277,33895 140717,33634 141155,33370 141592,33104 142027,32835 142895,32293 143761,31747 144593,31219 145422,30687 145835,30418 146246,30148 146656,29875 147065,29599 147581,29244 148095,28885 148606,28521 149115,28154 149834,27636 151117,21440 95173,21312 95173,21312" />
	
   <path gf-side="left" gf-tag="" gf-guid="c6198953-da5d-4b8c-8b88-097ffb0d51e6"  gf-forceAngle="True" style="fill: none; stroke:#e30016;stroke-width:1" 
	d=" M93638,20376 64236,20207 64136,20206 64038,20203 63939,20199 63840,20193 63742,20186 C63192,20146 62941,20133 62553,19958 61963,19692 61739,19406 61690,18725 L61690,18659 61694,18590 61703,18521 C61791,18067 62061,17573 62333,17204 L62386,17134 62441,17064 62497,16995 62554,16927 62611,16859 62684,16774 62758,16689 62833,16606 62908,16523 C65203,14061 67629,11233 70323,9260 L70436,9179 70550,9098 70665,9018 70780,8940 70896,8862 71012,8785 71110,8722 71208,8660 71307,8598 71406,8538 71506,8478 71606,8419 71706,8360 71807,8303 71909,8246 72011,8191 72113,8136 72216,8082 72319,8029 72423,7976 72527,7925 72632,7875 72707,7839 72783,7804 72859,7769 72935,7735 73012,7701 73089,7667 73165,7634 73242,7602 73320,7569 73397,7538 73474,7506 73552,7475 73708,7414 73864,7354 74021,7295 74178,7238 74336,7181 74494,7125 74652,7070 74811,7016 C78156,5894 81235,5314 84748,4790 L85213,4723 85678,4658 91379,3859 93638,20376 93638,20376" />
	
   <path gf-side="none" gf-tag="" gf-guid="a779e846-b536-4ca7-8995-d1f567a1bc28"  gf-forceAngle="True" style="fill: none; stroke:#e30016;stroke-width:1" 
	d=" M93605,21234 64203,21403 64104,21404 64005,21407 63906,21411 63808,21417 63709,21423 C63160,21464 62908,21477 62521,21652 61930,21918 61706,22204 61657,22885 L61657,22951 61661,23020 61670,23089 C61758,23543 62028,24037 62300,24406 L62354,24476 62409,24546 62464,24614 62521,24683 62578,24750 62651,24836 62725,24920 62800,25004 62876,25087 C65170,27549 67597,30377 70290,32350 L70403,32431 70517,32512 70632,32592 70747,32670 70863,32748 70980,32825 71077,32888 71175,32950 71274,33011 71373,33072 71473,33132 71573,33191 71673,33250 71774,33307 71876,33364 71978,33419 72080,33474 72183,33528 72286,33581 72390,33634 72494,33685 72599,33735 72675,33771 72750,33806 72826,33841 72903,33875 72979,33909 73056,33943 73133,33976 73210,34008 73287,34040 73364,34072 73442,34104 73519,34135 73675,34196 73832,34256 73988,34315 74146,34372 74303,34429 74461,34485 74620,34539 74778,34594 C78123,35716 81203,36296 84715,36820 L85180,36887 85645,36952 91346,37751 93605,21234 93605,21234" />
	
   <path gf-side="none" gf-tag="" gf-guid="f3263997-362a-4f09-b39a-7469c80c123d"  gf-forceAngle="True" style="fill: none; stroke:#e30016;stroke-width:1" 
	d=" M2947,28489 3034,28547 3120,28606 3207,28663 3295,28720 3383,28776 3471,28831 3560,28886 3649,28940 3738,28994 3828,29047 3918,29099 4009,29150 4100,29201 4191,29251 4283,29301 4375,29349 4467,29398 4559,29445 4652,29492 4746,29539 4839,29584 4933,29629 5027,29674 5121,29718 C6466,30331 7849,30751 9280,31117 11364,31637 13496,32042 15615,32390 17877,32749 20105,32997 22391,33205 22793,33242 23200,33295 23597,33316 23782,33325 23841,33332 24008,33209 25192,32336 26538,32278 27970,32246 29187,32219 30384,32194 31605,32211 32703,32227 33812,32240 34895,32296 35644,32334 35897,32335 36567,32753 36674,32824 36778,32873 36894,32928 37434,33183 37562,33156 38246,33165 L38350,33164 38453,33163 38530,33160 38607,33157 38684,33153 38761,33147 38838,33142 C40368,33014 41966,32803 43462,32549 46782,31985 50597,31255 53829,30259 55603,29713 57405,28924 58746,27824 L58837,27748 C59524,27156 60175,26500 60594,25687 L60626,25621 60657,25555 60687,25488 60733,25378 C60820,25145 60883,24933 60940,24691 L60965,24574 60987,24459 61007,24343 61025,24227 61039,24111 61050,23995 61058,23879 61063,23762 61063,23646 61060,23545 61053,23444 61044,23343 61032,23243 C60470,19502 59862,15743 59286,12000 L59227,11630 59210,11547 59192,11465 C58958,10442 58673,9869 58012,9049 L57949,8973 57886,8899 57822,8825 57757,8752 C56887,7817 55811,7494 54579,7294 L54477,7279 54374,7265 54271,7253 54168,7242 54096,7235 54024,7229 53951,7224 C51710,7081 48925,7369 46690,7523 L46215,7559 C43885,7747 41550,7989 39220,8193 30900,8883 21957,8177 13552,7583 L10544,7403 C9868,7363 9163,7299 8482,7286 L8400,7284 8319,7284 C6831,7279 5761,7491 4481,8281 L4411,8325 4342,8370 4274,8416 4206,8463 4139,8511 4073,8559 4007,8609 3942,8659 3866,8720 3791,8782 3718,8845 3645,8909 3574,8974 3503,9041 3434,9109 3365,9177 C3015,9542 2707,9923 2483,10359 2237,10837 2201,11125 2116,11625 L52,23755 38,23843 27,23930 17,24017 10,24104 5,24191 2,24279 0,24366 1,24454 4,24570 12,24687 25,24802 45,24917 68,25014 97,25110 130,25205 C704,26649 1689,27615 2947,28489 L2947,28489" />
	
</svg>